Coordinates
version=1
nRows=16
nColumns=40
inDegrees=yes

Units are S.I. units (second, meters, Newtons, ...)
Angles are in degrees.

endheader
time	pelvis_tilt	pelvis_list	pelvis_rotation	pelvis_tx	pelvis_ty	pelvis_tz	hip_flexion_r	hip_adduction_r	hip_rotation_r	knee_angle_r	knee_angle_r_beta	ankle_angle_r	subtalar_angle_r	mtp_angle_r	hip_flexion_l	hip_adduction_l	hip_rotation_l	knee_angle_l	knee_angle_l_beta	ankle_angle_l	subtalar_angle_l	mtp_angle_l	lumbar_extension	lumbar_bending	lumbar_rotation	arm_flex_r	arm_add_r	arm_rot_r	elbow_flex_r	pro_sup_r	wrist_flex_r	wrist_dev_r	arm_flex_l	arm_add_l	arm_rot_l	elbow_flex_l	pro_sup_l	wrist_flex_l	wrist_dev_l
     25.38428571	     -4.37063358	     -5.45660483	     -0.05237797	      0.90035013	      0.90685067	      0.54568348	     17.24527920	      6.34190972	     -8.30183330	     31.46370624	     31.46370624	     19.00053039	    -14.42350808	      2.18839260	     30.51752714	    -12.43898787	      5.31891623	     66.98145268	     66.98145268	     14.65672360	    -19.52032320	     22.07663292	    -12.33961009	      5.65484461	     -0.54043354	     19.00559058	    -20.73780893	    -17.14577583	     62.10101574	     45.52056879	      0.00000000	      0.00000000	      7.25652558	     -8.16390648	     -3.19204375	     26.47906298	     46.56949154	      0.00000000	      0.00000000
     25.40357143	     -4.31661262	     -5.43014704	      0.73831637	      0.89822550	      0.90657205	      0.54653432	     16.92583815	      6.37820049	     -8.57078446	     31.41988878	     31.41988878	     19.25844624	    -15.03745707	      2.39886892	     31.94106963	    -12.37701696	      5.22714293	     65.62801237	     65.62801237	     15.55429975	    -19.56926513	     22.36962725	    -12.44929936	      5.38853975	     -0.65559290	     21.32604378	    -20.61380682	    -17.02398364	     64.67950223	     45.43933516	      0.00000000	      0.00000000	      5.52316747	     -7.86501559	     -3.11845600	     25.45564708	     46.52066397	      0.00000000	      0.00000000
     25.42285714	     -4.33490927	     -5.33572644	      1.54248734	      0.89611958	      0.90691613	      0.54694392	     16.52163541	      6.29495858	     -8.93535302	     31.07694573	     31.07694573	     19.41467997	    -15.39341059	      2.66686829	     33.16894347	    -12.10231738	      5.08930912	     63.45468647	     63.45468647	     16.41286506	    -19.58430491	     22.68070087	    -12.49726953	      5.05638345	     -0.71802983	     23.43876198	    -20.61169878	    -16.60766014	     67.84420758	     45.32899051	      0.00000000	      0.00000000	      3.82685216	     -7.57788941	     -3.07158368	     24.77029537	     46.47352662	      0.00000000	      0.00000000
     25.44214286	     -4.40241576	     -5.13373839	      2.32485145	      0.89404113	      0.90792925	      0.54683759	     15.99556418	      6.05863539	     -9.35869329	     30.43592036	     30.43592036	     19.46506943	    -15.49451510	      2.89292388	     34.09931263	    -11.57230683	      4.88887205	     60.48456845	     60.48456845	     16.98816493	    -19.57128676	     22.64184889	    -12.51437699	      4.68780694	     -0.64237112	     25.55869775	    -20.68794465	    -16.16010870	     71.05770435	     45.21807872	      0.00000000	      0.00000000	      2.22536673	     -7.31163288	     -3.03363068	     24.36982043	     46.42808507	      0.00000000	      0.00000000
     25.46142857	     -4.68957688	     -4.89416513	      3.11866412	      0.89187132	      0.90916556	      0.54623152	     15.61485812	      5.69433867	     -9.98134365	     29.62359685	     29.62359685	     19.36324838	    -15.38017022	      2.99336459	     34.96586776	    -10.82042899	      4.78048996	     56.85818684	     56.85818684	     16.90610565	    -19.52298867	     21.62985684	    -12.38788907	      4.33791573	     -0.26453514	     26.85444517	    -21.40748117	    -15.13635821	     75.92546677	     45.04346488	      0.00000000	      0.00000000	      0.54138612	     -7.05379091	     -2.98092095	     24.97004305	     46.35761558	      0.00000000	      0.00000000
     25.48071429	     -4.96308304	     -4.61905935	      3.88921403	      0.88982164	      0.91095040	      0.54527531	     15.04122716	      5.29629092	    -10.58895096	     28.52174906	     28.52174906	     19.16713394	    -15.06583980	      2.94601566	     35.41014807	     -9.88424431	      4.82532056	     52.55939602	     52.55939602	     16.37207428	    -19.42648553	     20.30917512	    -12.21016541	      3.96855441	     -0.18643171	     28.95121957	    -21.48418958	    -14.80468069	     79.40865214	     44.94341710	      0.00000000	      0.00000000	     -0.91339054	     -6.87404340	     -2.75937819	     25.06540120	     46.27012934	      0.00000000	      0.00000000
     25.50000000	     -5.26453906	     -4.28945553	      4.60861699	      0.88784300	      0.91297071	      0.54397626	     14.40234010	      4.80788769	    -11.28219428	     27.27509223	     27.27509223	     18.80535678	    -14.58791247	      2.61134309	     35.49426373	     -8.84623681	      4.94257971	     47.72782087	     47.72782087	     14.94255803	    -19.24859468	     17.58085644	    -12.05385101	      3.54670241	      0.09921855	     30.81358324	    -21.82211563	    -14.18830574	     83.16595150	     44.83716419	      0.00000000	      0.00000000	     -2.36029269	     -6.76472852	     -2.42065809	     25.70233271	     46.15375261	      0.00000000	      0.00000000
     25.51928571	     -5.56445091	     -4.02095728	      5.30889973	      0.88599686	      0.91505731	      0.54237122	     13.67651949	      4.37217837	    -12.07666568	     25.89990681	     25.89990681	     18.48761145	    -13.86059971	      2.49508218	     35.36538023	     -7.80365642	      5.33484529	     42.75564688	     42.75564688	     13.59115350	    -18.83349345	     16.00040837	    -11.87239530	      3.24356099	      0.09777028	     33.20312637	    -21.62290547	    -13.72342380	     86.21864622	     44.74973285	      0.00000000	      0.00000000	     -3.59468258	     -6.60624371	     -2.16758824	     25.77068082	     46.07467994	      0.00000000	      0.00000000
     25.53857143	     -5.86360183	     -3.66765829	      5.88692907	      0.88438678	      0.91710583	      0.54069601	     12.92922469	      3.91321115	    -12.63730508	     24.52801694	     24.52801694	     18.20692982	    -13.32582260	      2.58365984	     34.96033112	     -6.78383910	      5.72501417	     37.72591325	     37.72591325	     12.44470895	    -17.85017794	     15.49787171	    -11.60680123	      2.77322349	      0.45302423	     35.41571759	    -21.63513460	    -13.33006572	     88.41133265	     44.68334812	      0.00000000	      0.00000000	     -4.54502274	     -6.49881637	     -2.07200645	     25.80728139	     46.03494202	      0.00000000	      0.00000000
     25.55785714	     -6.21389720	     -3.60245659	      6.44568881	      0.88293194	      0.91834583	      0.53890842	     12.30212642	      3.65346516	    -13.63341105	     23.28191088	     23.28191088	     17.81640915	    -12.23561945	      1.67550249	     34.49124975	     -6.31670650	      5.78013307	     32.64753173	     32.64753173	      9.57037579	    -16.21858853	      9.98827270	    -11.40284066	      2.71600153	      0.60792629	     37.39875594	    -21.95789962	    -11.74813940	     92.42116331	     44.55352595	      0.00000000	      0.00000000	     -6.01102144	     -6.44864766	     -1.74984817	     27.34632224	     45.92588246	      0.00000000	      0.00000000
     25.57714286	     -6.39479143	     -3.48853650	      6.88508674	      0.88180903	      0.91963717	      0.53718526	     11.50728708	      3.51079235	    -14.08037235	     22.08313677	     22.08313677	     17.60462992	    -11.81794752	      1.76253683	     33.89263576	     -5.93409414	      5.65798503	     28.30766186	     28.30766186	      8.85485455	    -13.53592800	      9.95831687	    -11.22008049	      2.49977564	      1.00262849	     39.71411098	    -21.68673858	    -11.48991325	     93.97794960	     44.51425649	      0.00000000	      0.00000000	     -6.67446650	     -6.39257105	     -1.61280169	     27.27629231	     45.88956225	      0.00000000	      0.00000000
     25.59642857	     -6.59058568	     -3.47381128	      7.27087180	      0.88090309	      0.92028504	      0.53540318	     10.81731133	      3.43922914	    -14.60937815	     21.08079689	     21.08079689	     17.53161295	    -11.22138972	      1.69421250	     33.39323480	     -5.76045941	      5.23667712	     24.58295857	     24.58295857	      8.16596061	    -10.60171650	      9.81107091	    -11.00626021	      2.40411864	      1.27086199	     41.93368266	    -21.30340777	    -10.81969150	     95.83355480	     44.45195177	      0.00000000	      0.00000000	     -7.32215878	     -6.31169439	     -1.50788202	     27.39168646	     45.85818683	      0.00000000	      0.00000000
     25.61571429	     -6.71528828	     -3.65066350	      7.59453149	      0.88029125	      0.92023198	      0.53359666	     10.12948806	      3.56405740	    -15.18986712	     20.20032955	     20.20032955	     17.27733950	    -10.61185909	      0.68177314	     32.92078119	     -5.88076201	      4.53926960	     21.44577585	     21.44577585	      6.50551073	     -7.86814331	      6.74220212	    -10.87617604	      2.55082160	      1.19344046	     44.32382558	    -20.95911959	     -8.93827601	     97.56082997	     44.43096778	      0.00000000	      0.00000000	     -8.64389763	     -6.41102939	     -0.96681145	     29.16605524	     45.73515941	      0.00000000	      0.00000000
     25.63500000	     -6.83609529	     -3.70826214	      7.84616999	      0.87982373	      0.91991222	      0.53168631	      9.60721393	      3.56508507	    -15.48417901	     19.71687912	     19.71687912	     17.43268026	    -10.31734753	      0.62012038	     32.50700390	     -5.82972648	      3.94726818	     19.09594594	     19.09594594	      5.97551158	     -5.76889947	      6.99148577	    -10.69288673	      2.48373424	      1.55709993	     46.17877726	    -20.49590223	     -8.43037006	     98.80838098	     44.39199615	      0.00000000	      0.00000000	     -8.90629756	     -6.37884897	     -0.89355291	     29.15667027	     45.72033277	      0.00000000	      0.00000000
     25.65428571	     -6.92460244	     -3.91669271	      8.05233607	      0.87960201	      0.91899082	      0.52981467	      9.11384588	      3.71801317	    -15.80583644	     19.34613273	     19.34613273	     17.66334693	     -9.91027792	      0.32816293	     32.32332315	     -6.03331474	      2.95989369	     17.64875805	     17.64875805	      5.14943708	     -3.72036728	      5.58043780	    -10.53783736	      2.56776543	      1.62851779	     48.07023101	    -20.08441130	     -6.88573295	     99.94801278	     44.35854584	      0.00000000	      0.00000000	     -9.44241265	     -6.38713347	     -0.77366484	     29.87144878	     45.69469555	      0.00000000	      0.00000000
     25.67357143	     -6.98461946	     -4.11070974	      8.24668664	      0.87955872	      0.91781267	      0.52779747	      8.67976020	      3.85301150	    -16.00127531	     19.17270135	     19.17270135	     17.97078844	     -9.77805424	      0.16657215	     32.13602207	     -6.14098530	      2.31453009	     16.70985682	     16.70985682	      4.23437005	     -2.85329372	      4.31286950	    -10.38646493	      2.60243608	      1.70898582	     49.63570838	    -19.44162921	     -5.92707575	    100.85080418	     44.33778343	      0.00000000	      0.00000000	     -9.69816423	     -6.43603774	     -0.71087715	     30.25459528	     45.68392496	      0.00000000	      0.00000000
